<svg xmlns="http://www.w3.org/2000/svg" xml:space="preserve" width="360.734" height="359.193" style="shape-rendering:geometricPrecision;text-rendering:geometricPrecision;image-rendering:optimizeQuality;fill-rule:evenodd;clip-rule:evenodd" viewBox="0 0 586.32 583.81"><defs><style>.str0{stroke:#c4c4c4;stroke-width:1.08;stroke-miterlimit:2.61313}.fil0{fill:#898989}</style></defs><g id="Layer_x0020_1"><path class="fil0 str0" d="M63.13 60.66h269.73v123.01c0 13.53 11.04 24.57 24.57 24.57h14.18c13.53 0 24.57-11.04 24.57-24.57V49.68c0-27.07-22.08-49.14-49.14-49.14H49.69C22.62.54.55 22.62.55 49.68v484.44c0 27.07 22.08 49.14 49.14 49.14h297.35c27.07 0 49.14-22.08 49.14-49.14V398.66c0-13.53-11.04-24.57-24.57-24.57h-14.18c-13.53 0-24.57 11.04-24.57 24.57v119.6H63.13V60.65z"/><path class="fil0 str0" d="M307.93 250.11h150.06v-46.06c0-9.47 7.73-17.2 17.2-17.2h8.14c2.84 0 5.29 1.07 7.22 3.16l91.66 92.82c4.76 4.3 4.76 12.33.02 16.65l-91.68 93.34c-1.93 2.1-4.39 3.18-7.24 3.18h-8.12c-9.47 0-17.2-7.73-17.2-17.2v-46.06H307.93c-20.3 0-36.86-16.56-36.86-36.86v-8.92c0-20.3 16.56-36.86 36.86-36.86z"/></g></svg>