<svg width="12" height="12" fill="none" xmlns="http://www.w3.org/2000/svg"><path d="M11.222 10.375 9.006 8.038a.52.52 0 0 0-.378-.164h-.362a5.017 5.017 0 0 0 .978-2.999C9.244 2.182 7.175 0 4.622 0S0 2.182 0 4.875c0 2.692 2.069 4.874 4.622 4.874 1.073 0 2.06-.384 2.844-1.031V9.1c0 .15.056.293.156.398l2.215 2.337c.209.22.547.22.754 0l.629-.663a.59.59 0 0 0 .002-.797zm-6.6-2.501c-1.571 0-2.845-1.34-2.845-2.999 0-1.657 1.272-3 2.845-3 1.571 0 2.844 1.34 2.844 3 0 1.656-1.271 2.999-2.844 2.999z" fill="#999"/></svg>