<svg width="14" height="10" fill="none" xmlns="http://www.w3.org/2000/svg"><path d="M6.501 2.529a2.51 2.51 0 0 0-.705.113c.107.185.163.395.163.61 0 .697-.567 1.264-1.264 1.264a1.28 1.28 0 0 1-.609-.163 2.522 2.522 0 1 0 3.121-1.727 2.592 2.592 0 0 0-.706-.097zm6.42 2.199C11.7 2.34 9.276.724 6.502.724S1.303 2.34.079 4.728a.741.741 0 0 0 0 .659c1.224 2.388 3.648 4.004 6.422 4.004 2.774 0 5.198-1.616 6.42-4.004a.723.723 0 0 0 0-.659zm-6.42 3.579c-2.226 0-4.268-1.241-5.37-3.25 1.102-2.009 3.142-3.25 5.37-3.25 2.227 0 4.268 1.241 5.369 3.25-1.101 2.009-3.142 3.25-5.369 3.25z" fill="#3E3E3E"/></svg>