<svg width="17" height="17" fill="none" xmlns="http://www.w3.org/2000/svg"><path d="M8.5 0A8.498 8.498 0 0 0 0 8.5C0 13.196 3.804 17 8.5 17S17 13.196 17 8.5 13.196 0 8.5 0zm0 15.355A6.863 6.863 0 0 1 1.645 8.5 6.863 6.863 0 0 1 8.5 1.645 6.863 6.863 0 0 1 15.355 8.5 6.863 6.863 0 0 1 8.5 15.355zM5.758 7.952a1.096 1.096 0 1 0 0-2.194 1.096 1.096 0 1 0 0 2.194zm5.484 0a1.096 1.096 0 1 0 0-2.194 1.096 1.096 0 1 0 0 2.194zm.137 2.488A3.74 3.74 0 0 1 8.5 11.79a3.73 3.73 0 0 1-2.879-1.35.824.824 0 0 0-1.265 1.052 5.38 5.38 0 0 0 4.144 1.94 5.38 5.38 0 0 0 4.144-1.94.821.821 0 0 0-.107-1.158.824.824 0 0 0-1.158.106z" fill="#B346BD"/></svg>