<svg width="14" height="16" fill="none" xmlns="http://www.w3.org/2000/svg"><path d="M6.56 8.375c-.7 0-1.32-.146-1.9-.498a3.285 3.285 0 0 1-1.35-1.348c-.35-.586-.5-1.2-.5-1.904 0-.674.15-1.29.5-1.875.32-.586.76-1.025 1.35-1.377a3.831 3.831 0 0 1 3.78 0c.58.352 1.02.791 1.37 1.377.33.586.5 1.201.5 1.875 0 .703-.17 1.318-.5 1.904a3.59 3.59 0 0 1-1.37 1.348c-.59.352-1.2.498-1.88.498zm2.64.938c.7 0 1.35.175 1.96.527.59.351 1.09.85 1.44 1.435.35.616.52 1.26.52 1.963v1.23c0 .41-.14.733-.41.997-.29.293-.61.41-.99.41H1.41c-.41 0-.74-.117-1-.41-.29-.264-.41-.586-.41-.996v-1.23c0-.704.18-1.348.53-1.964A3.98 3.98 0 0 1 1.96 9.84a3.81 3.81 0 0 1 1.97-.527h.49c.68.322 1.38.468 2.14.468.73 0 1.44-.146 2.14-.469h.5z" fill="#fff"/></svg>